<svg width="13" height="20" viewBox="0 0 13 20" fill="none" xmlns="http://www.w3.org/2000/svg">
<path d="M4.652 12.832H7.772C7.388 9.52 12.644 9.088 12.644 5.584C12.644 2.392 10.1 0.759999 6.62 0.759999C4.052 0.759999 1.94 1.936 0.404 3.712L2.372 5.512C3.548 4.288 4.748 3.616 6.212 3.616C8.108 3.616 9.26 4.432 9.26 5.896C9.26 8.224 4.148 9.064 4.652 12.832ZM6.236 19.24C7.436 19.24 8.348 18.352 8.348 17.104C8.348 15.856 7.436 14.992 6.236 14.992C5.012 14.992 4.1 15.856 4.1 17.104C4.1 18.352 4.988 19.24 6.236 19.24Z" fill="#9298A5" fill-opacity="0.67"/>
</svg>
